<svg width="496" height="489" viewBox="0 0 496 489" fill="none" xmlns="http://www.w3.org/2000/svg">
<path d="M280 24.056V40.715C280 51.519 287.281 60.874 297.686 63.781C375.204 85.434 432 156.518 432 241C432 342.689 349.705 425 248 425C146.311 425 64 342.705 64 241C64 156.53 120.786 85.436 198.312 63.781C208.719 60.874 216 51.517 216 40.712V24.064C216 8.35499 201.166 -3.08901 185.954 0.829994C78.603 28.482 -0.606 126.206 0.00299953 242.332C0.723 379.384 111.48 489.288 248.534 488.999C385.255 488.711 496 377.788 496 241C496 125.367 416.86 28.221 309.789 0.763994C294.678 -3.11101 280 8.45599 280 24.056Z" fill="#002D72"/>
</svg>
