<svg width="1792" height="1408" viewBox="0 0 1792 1408" fill="none" xmlns="http://www.w3.org/2000/svg">
<path d="M384 1056V1120C384 1128.67 380.833 1136.17 374.5 1142.5C368.167 1148.83 360.667 1152 352 1152H288C279.333 1152 271.833 1148.83 265.5 1142.5C259.167 1136.17 256 1128.67 256 1120V1056C256 1047.33 259.167 1039.83 265.5 1033.5C271.833 1027.17 279.333 1024 288 1024H352C360.667 1024 368.167 1027.17 374.5 1033.5C380.833 1039.83 384 1047.33 384 1056ZM384 800V864C384 872.667 380.833 880.167 374.5 886.5C368.167 892.833 360.667 896 352 896H288C279.333 896 271.833 892.833 265.5 886.5C259.167 880.167 256 872.667 256 864V800C256 791.333 259.167 783.833 265.5 777.5C271.833 771.167 279.333 768 288 768H352C360.667 768 368.167 771.167 374.5 777.5C380.833 783.833 384 791.333 384 800ZM384 544V608C384 616.667 380.833 624.167 374.5 630.5C368.167 636.833 360.667 640 352 640H288C279.333 640 271.833 636.833 265.5 630.5C259.167 624.167 256 616.667 256 608V544C256 535.333 259.167 527.833 265.5 521.5C271.833 515.167 279.333 512 288 512H352C360.667 512 368.167 515.167 374.5 521.5C380.833 527.833 384 535.333 384 544ZM1536 1056V1120C1536 1128.67 1532.83 1136.17 1526.5 1142.5C1520.17 1148.83 1512.67 1152 1504 1152H544C535.333 1152 527.833 1148.83 521.5 1142.5C515.167 1136.17 512 1128.67 512 1120V1056C512 1047.33 515.167 1039.83 521.5 1033.5C527.833 1027.17 535.333 1024 544 1024H1504C1512.67 1024 1520.17 1027.17 1526.5 1033.5C1532.83 1039.83 1536 1047.33 1536 1056ZM1536 800V864C1536 872.667 1532.83 880.167 1526.5 886.5C1520.17 892.833 1512.67 896 1504 896H544C535.333 896 527.833 892.833 521.5 886.5C515.167 880.167 512 872.667 512 864V800C512 791.333 515.167 783.833 521.5 777.5C527.833 771.167 535.333 768 544 768H1504C1512.67 768 1520.17 771.167 1526.5 777.5C1532.83 783.833 1536 791.333 1536 800ZM1536 544V608C1536 616.667 1532.83 624.167 1526.5 630.5C1520.17 636.833 1512.67 640 1504 640H544C535.333 640 527.833 636.833 521.5 630.5C515.167 624.167 512 616.667 512 608V544C512 535.333 515.167 527.833 521.5 521.5C527.833 515.167 535.333 512 544 512H1504C1512.67 512 1520.17 515.167 1526.5 521.5C1532.83 527.833 1536 535.333 1536 544ZM1664 1248V416C1664 407.333 1660.83 399.833 1654.5 393.5C1648.17 387.167 1640.67 384 1632 384H160C151.333 384 143.833 387.167 137.5 393.5C131.167 399.833 128 407.333 128 416V1248C128 1256.67 131.167 1264.17 137.5 1270.5C143.833 1276.83 151.333 1280 160 1280H1632C1640.67 1280 1648.17 1276.83 1654.5 1270.5C1660.83 1264.17 1664 1256.67 1664 1248ZM1792 160V1248C1792 1292 1776.33 1329.67 1745 1361C1713.67 1392.33 1676 1408 1632 1408H160C116 1408 78.3333 1392.33 47 1361C15.6667 1329.67 0 1292 0 1248V160C0 116 15.6667 78.3333 47 47C78.3333 15.6667 116 0 160 0H1632C1676 0 1713.67 15.6667 1745 47C1776.33 78.3333 1792 116 1792 160Z" fill="#007377"/>
</svg>
